<svg xmlns="http://www.w3.org/2000/svg" id="layer" viewBox="20 240 632 175">
	<style>.st0{fill:#ee7800}</style>
	<path d="M200.9 383.8l-3.6 2.9-4-5.6-7-9.8-4-5.6c.9-1 2.2-2 3.4-2.9l.6.7 7 7.9 7.6 8.5 2 2.3-2 1.6zm-14.6 10l-3.7 1.9-.9-2.3-7.6-18.6-.8-2.1-.2-.5v-.8c.1-.1.1-.1.2-.1.3-.1.5-.3.8-.5 1-.5 2-1.1 2.9-1.6l4.7 9.2 4.6 8.9 2.6 5.1-2.6 1.4zm-13 5.7l-4.1 1.2-2.3.7-4.3-26.2c1.2-.5 2.7-.7 4.4-1.2l2.1 8.3 4.1 16.3.2.8-.1.1zm-19.1 4.2l-3.6.3 1.4-27.4h4.2l1.2 26.6c-1 .2-2.1.3-3.2.5m-13.1.1v.2c-1.6-.1-3.3-.3-4.9-.5-.4-.1-.8-.1-1.2-.1-.1 0-.3-.1-.4-.1l.4-1.7 1.2-4.5 4.9-18.7.5-1.9h3.6c.3.2.3.5.3.7l-4.4 26.6zm-12.5-11.2l-3.1 8.3c-1.2-.3-2.2-.7-3.2-1-1.1-.3-2-.7-3.1-1l3.1-6.3 6.4-13 3.1-6.4 3.2 1 .5.2-.5 1.2-6.4 17zm-10.6-8.8l-7 11c-.7-.3-1.4-.7-2.2-1.1-1.1-.6-2.2-1.2-3.2-1.8l3.2-4.3 9.2-12.1 4.2-5.7.8-1c1 .5 2.2 1.2 3.2 2l-4 6.3-4.2 6.7zm-17.6.3l-1.6 1.7c-1.5-1.2-2.9-2.7-4.5-4.2l6.1-5.6 8.5-7.9 6.6-6.1c.9.7 1.7 1.4 2.5 2.3l.4.4-.4.4-9.2 9.8-8.4 9.2zm-7.2-13l-4.2 3.1c-1.3-1.5-2.5-3.4-3.4-5.2l7.6-4.6 7.2-4.5 4.2-2.6 4.2-2.6 1-.6c1 .3 1.4 2 2.3 3l-.2.2-3 2.1-8.5 6.4-7.2 5.3zm-10.1-11l-1.2.5c-.3-.8-.5-1.7-1-2.7.2-.1 8.9-4.3 12.3-6.3 1.8-1.1 3.7-2.4 5.5-4 .5-.4 1.1-.7 1.7-1 1.8-.8 4-1.2 5.9-1.8.5 1.2 1 2.7 1.3 4l-7.2 3.3-7.2 3.4-4 1.9-6.1 2.7zm-25.6 7.3c-.5-.3-1.2-.5-2-.8l27.5-13h2.3l-27.8 13.8zm-8.2-4.3l-1.1.5c-.8-.5-1.8-1.4-2.3-2l3.3-1.5 6.1-2.7 15.3-6.8.4-.1 3.2-1.4.4-.2c.9.7 1.7 1.2 2.1 1.8l-2.5 1.2-3.2 1.4-.4.2-8.8 4-12.5 5.6zm-10.4-6.6c-.5-1-1.2-2.2-1.7-3.2l12.1-4.3 20.6-7.2c.3.3.5.6.8 1 .1.2.3.4.4.6.1.1.2.3.3.5l-.3.1-.4.1-21.4 8.3-10.4 4.1zm-6.4-11.6c-.6-1-1-2-1.3-3l18-3.8 17.6-3.8c.3.7.5 1.5.8 2.3l-18.3 4.3-16.8 4zM28 333.1v-4.4l21.2-.8 16.1-.6c-.1.8-.1 1.7 0 2.5l-16.1 1.4-21.2 1.9zm0-18.4l21.2 1.8 15.9 1.3c.1 2.3-.1 2.4 0 2.7l-15.9-.7-21.2-.9v-4.2zm4.5-12.1l16.7 4.2 18.3 4.6c-.3.5-.5 1.3-1 2l-17.4-3.8-18.2-4c.6-1.1 1.1-2 1.6-3m6.2-11.3l10.6 4.2 21.4 8.3.4.1h.1c0 .1-.1.1-.1.2-.1.2-.3.5-.4.8-.1.3-.3.7-.5 1.1l-20.9-7.2-12.3-4.3c.5-1.1 1.1-2.2 1.7-3.2m9.4-6.9l1.2.6 21.4 9.6.4.2 3.2 1.4 3.3 1.5c-.7.6-1.8 1.3-2.4 1.6l-.9-.4-3.2-1.4-.4-.1-21.4-9.4-3.6-1.6c.7-.8 1.7-1.6 2.4-2m9.4-4l13.1 6.6.4.2 3.2 1.6 8.8 4.4 2.5 1.3c-.5.1-1.2.1-1.8.3l-.6-.3-8.8-4.2-3.2-1.6-.4-.2-14.9-7.2c.5-.4 1.3-.6 1.7-.9m35.7 21.3c3.5 3 5.9 7.9 7.2 11.9.6 2 1 3.7 1 4.9.3 4.2.3 6.6 0 10.6-.1 1.2-.4 3-1 5-1.3 4.1-3.8 9.2-7.2 12.3-1.8 1.6-4 2.7-6.4 2.7-.4 0-2.1-.1-3.6-.6-.5-.1-1-.3-1.4-.5-3.1-1.5-5.9-5.2-7.4-8.3-.2-.3-.3-.6-.5-.9-1.2-2.9-2.4-8.5-2.7-12.7-.1-.7-.1-1.6-.1-2.3 0-.1.1-.6.1-1.2.2-2.1.7-6.5 1.3-9.2.3-1.6 1-3.4 1.9-5.2 1.4-2.8 3.6-5.7 6.4-7.6.6-.5 1.4-.8 2.4-1.2 1.2-.4 2.6-.6 3.4-.6 2.5.3 4.7 1.3 6.6 2.9m-4-10l4 2 7.2 3.7 8.5 4.4 3.4 1.7c-.5 1.3-1.2 2.7-2.2 4.2-.4-.1-.8-.3-1.2-.4-2.3-.9-4.8-1.8-7.1-3-.5-.3-.7-1.2-1.1-1.6l-.3-.3c-1.6-2.1-3.6-4-5.7-5.5l-1.5-.9c-1.4-.8-3.1-1.5-4.7-2.3-.1-.5.4-1.2.7-2m5.9-8.2l4.6-5.5.7.6 8.5 7.5 9.2 8 .9.8c-.3.5-.6 1-.9 1.4-.5.8-1.2 1.5-1.8 2.3l-7.4-5.2-8.5-6.1-5.3-3.8zm13.8-14.2l3.6-2.8 5.6 7.8 4.2 5.9 5.1 7.2c-1.2 1-2.4 1.7-3.7 2.7l-1.4-1.6-4.2-4.9-9.2-10.5-2-2.3 2-1.5zm13.4-9.3c1.4-.8 3-1.6 4.6-2.3l1.8 4.2 6.4 15.2 1.2 2.9.5 1.2c-.1.1-.3.3-.5.4-.4.3-.8.6-1.2.8-.6.4-1.4.8-2 1.2l-4.4-8-6.4-11.7-1.6-3.1 1.6-.8m13.9-6.6l4.9-1.6 1.1-.4 4.3 24.9v1.5c-1.2.3-2.7.7-3.9 1.2l-1.5-5.6-4.9-18-.5-1.8.5-.2zm18-4.4c1.2-.1 2.6-.3 4.4-.4l-1.4 27.4c-.9-.1-1.9-.1-3-.1-.3 0-.7.1-1.2.1l-1.2-26.7c.7-.1 1.5-.3 2.4-.3m13.9-.7c.4.1.7.1 1.1.1 1.4.1 2.7.3 4.1.5.3 0 .5.1.8.1.2.1.4.1.6.1l-.6 2.2-.8 3.2-4.1 15.4-1.6 5.9c-2.5-.1-3.1-.1-4 0l4.5-27.5zm13.6 8.3l2.3-5.7 2.3.8 3.6 1.2-3.6 7.3-4.6 9.6-4.2 8.7c-1.1-.4-2.3-.8-3.3-1.3-.2-.1-.4-.1-.5-.2l.5-1.4 7.5-19zm11.6 7.9l4.9-7.7 2.7 1.5c.9.5 1.9 1.1 2.9 1.6l-2.9 4-7.6 10.1-6.9 9.2c-.1 0-.1 0-.1-.1-1.2-.7-2.3-1.4-3.6-2.1l3.6-5.6 7-10.9zm17.7 1l.2.2 4.2 4.2-4.2 3.7-10.4 9.6-6.8 6.3-.7-.7-2-2 2-2.2 7.6-8.2 10.1-10.9zm9.9 11.5c1.2 1.7 2.5 3.6 3.6 5.6l-13.3 8.1-10.4 6.4-.8.5c-.5-.8-1.5-1.9-2.2-3.2l3-2.3 10.4-7.8 9.7-7.3zm-9.7 79.7c-1-.5-1.9-.9-2.9-1.3-.5.5-.8 1.2-1.2 2-1.1 2.4-2.1 5.3-5 4.2 2.7 2.2 6.2 4.7 9.1 7.2 1 .9 2 1.8 2.7 2.6-1 1.1-1.9 2.2-2.7 3.3-.6.8-1.1 1.5-1.6 2.2l-8.7-8.2-7.2-6.9H184c-.8.8-1.6 1.5-2.2 2.2-.7.7-1.4 1.4-2 1.8-1.6 1.1-3.5 2.1-5.6 3.1-.3.1-.5.3-.8.4-1.4.6-2.7 1.2-4.1 1.8-2.9 1.2-5.8 2.1-8.6 2.9-1.6.4-4.2.8-6.4 1-1.9.1-3.6.3-3.8.3-.5 0-5.9-.3-9.2-.9-.3-.1-.5-.1-.8-.1-1.4-.3-2.8-.7-4.2-1.2l-1.2-.3c-1.4-.5-2.8-1-4.1-1.4-.7-.3-1.4-.6-2.3-1-2.1-1-4.2-2.5-6.4-4.3-1.5-1.2-2.9-2.5-4.2-3.9-1.5-1.5-2.8-3.1-3.8-4.7-.6-1-1.2-1.9-1.5-2.8-.6-1.2-1.6-2.3-2.3-3.6-.5-1.2-1.1-2.5-1.6-3.8-.6-1.6-1.1-3.3-1.5-4.9-.6-2.5-.4-5.1-.6-7.8 0-.7-.6-1.3-.6-1.8 0-.6.6-8.1 1.5-12.1.3-1.4.8-2.9 1.2-4.4.6-1.9 1.4-3.8 2-5.7.9-2.3 2.6-4.5 3.9-6.6.6-.9.8-2 1.3-2.5.6-.7 1.3-1.5 1.9-2.2 1.4-1.6 2.7-3.3 4.2-4.9l1.8-1.8c1.4-1.4 3.1-2.4 4.6-3.5.3-.2.6-.4.9-.7 1-.8 1.8-1.7 2.8-2.2l2.7-1.5 1.2-.6c1.6-.9 3.2-1.8 4.9-2.5.1-.1.3-.1.5-.1 3.1-1.2 6.7-2.3 10.1-3.1.7-.1 1.6-.3 2.5-.4 3.1-.3 6.9-.3 7.4-.3.6 0 4.5.2 7.7.6.7.1 1.4.3 2 .4.7.1 1.4.3 2 .5.3.1.5.1.8.2 2.2.6 4.4 1.4 6.3 2.6.4.2.9.5 1.3.8 1.4.9 3 1.8 4.6 2.9 2.4 1.6 4.9 3.6 7 5.9.7.8 1.5 1.6 2.2 2.6 2.1 2.7 3.8 5.7 5.4 8.7.1.3.3.7.5 1 1.4 2.9 2.3 6.4 3.7 9.6 3.5.8 4.7-2.9 6.2-6 .5-1.1 1.1-2.1 1.8-2.9l-1.8.8-6.6 2.5c-.4-1.1-.9-2.5-1.4-3.6l7.9-3.7 18.1-8.7c.9 1.6 1.4 3.2 2.1 4.9h1.8c-.3-1.2-2.5-7.5-3.4-7.5-.6 0-3 1.8-4.4 1.9l1.2-7.7c-.5-1.2-1.5-2.7-2.3-4.1-.3-.6-2.2-4.1-3.1-4.1-.6 0-2.3 1.6-3.2 2.1v-4c-.3-1.2.1-2.5-.5-3.3-1.4-2.1-5.1-5.5-6.4-6.2-.1-.1-.3-.1-.3-.1-.6 0-2.1 1.9-2.9 2.7-.6-2.2-.5-5-1.9-6.8-1.1-1.4-3.4-2.7-5.2-3.7-1.4-.7-2.5-1.1-2.7-1.1-1 0-2.2 2.7-2.7 3.3-.8-1.4-1.3-3.1-2.2-4.5-.4-.7-1-1.4-1.6-1.8-1.3-1-3.5-1.7-5.4-2.1-1.4-.3-2.5-.6-2.7-.6-.8 0-1.4 1.2-1.9 2.2-.3.8-.5 1.4-.5 1.6-1.6-1.6-2.7-4.3-4.9-5.1-.7-.3-1.4-.4-2.2-.6-.3-.1-.5-.1-.8-.1-1.4-.1-2.7-.1-4.1-.2-.7 0-1.5-.1-2.3-.1-.5 1.5-.7 2.9-1.2 4.3-2.1-1.4-5.8-4.3-6.4-4.3-.4 0-2.8.4-5.2.6-1.4.1-2.7.3-3.8.4-.3.2-.5.5-.5.5-.1 1.4-.1 2.9 0 4L143 249c-.4.2-1.1.4-1.9.7-1.5.5-3.4 1.1-4.9 1.7-.5.1-.8.3-1.2.5-.8.4-1.4.7-1.4 1 0 .5.7 2.3 1 3.1-.2.2-1.1.1-1.1.1-1.3-.3-3.5-.6-4.8-.8-.5 0-.9-.1-1.1-.1-.6 0-.5 0-.8.1-1.4.9-3 1.7-4.5 2.5-2.2 1.1-4 2-4 2.7 0 .6 1 2.3 1.6 3.1-.5.1-1 .1-1.8.1-.7 0-1.6.1-3 .3-1 .1-2.1-.1-2.9.3-.9.5-2.1 1.4-3.3 2.3-2.3 1.8-4.4 3.8-4.4 4.2 0 .5 1.6 2 2.3 2.9-2.1.7-4.4.6-6.4 1.4-.5.1-.9.4-1.3.7-2.1 1.5-4.8 5.1-5.9 7-.3.5-.5.9-.5 1 0 .2.2.5.5.8.6.6 1.7 1.5 2.4 1.9-.7.5-1.6.9-2.4 1.2-2.7 1-5.6 1.6-6.6 5.1l-3.5-1.8-8.8-4.4-3.2-1.6-.4-.2-13.2-6.5c-1.6.7-3.5 1.2-4.7 2-1.2.7-1.4 2.3-2.1 3.1-.3-.2-.9-.5-1.4-.7-.5-.3-.9-.4-1.2-.4-.6 0-4 2.2-5.1 3.8-.9 1.2-.8 2.9-1.2 4.2h-.6c-.9-.5-2.1-1.2-2.7-1.2-1.2 0-3.4 5-3.5 5.3-.3 2.1-.7 4.3-1.4 6.3-.6 0-1.4-.3-1.8-.2-.8.8-2.7 4.1-2.7 6.1 0 .6.5 4.6.5 5.3 0 .5.1.8-.1 1-.9-.2-2.1-.2-3.1.1v7.3c0 .5 1.2 2.7 1.2 3.3 0 .6-1.2 2.9-1.2 3.4v7.4c.5.5 1 .5 1.6.5.6 0 1.2-.3 1.7-.1-.3 2.8-.5 5.1-.5 5.7 0 1.6 2 5.1 2.6 6.4.8.1 1.5-.1 1.9-.2.7 2.1 1.1 4.2 1.4 6.4 0 .2 1.3 2.7 2.4 4.2.5.6 1 1 1.3 1 .6 0 2.2-.7 3.1-.9.4 1.3.8 2.7 1.2 4.1.2.7 4.2 3.9 5.3 3.9.3 0 .7-.1 1.1-.3.6-.2 1.4-.6 1.9-.9.1 3.3 4.2 4.2 6.4 5.1l13.1-6.4.4-.2 3.2-1.6 4.8-2.3c.4 1.1.4 2.6 1.2 3.5.8.9 1.8 1.5 2.9 2.1 1.2.7 2.5 1.2 3.4 1.9-.3.1-3.3 1.4-3.3 2.3 0 .6 2.4 6.1 4.7 8 1.4 1.2 3.4 1.4 5.2 1.7.6.1 1.2.2 1.6.3-.4.4-1.1 1-1.6 1.5-.6.5-1.2 1.2-1.2 1.4 0 .2.5.9 1.2 1.7 1.3 1.6 3.4 3.8 5.1 4.8.6.4 1.4.3 2.2.3h.5c3 .3 3.9.2 4.8.4-.7.8-2.3 2.5-2.3 3.1 0 .6 3.1 2.5 5.5 3.9 1.4.7 2.5 1.2 2.7 1.2.6 0 5.6-.9 6.4-1h.1c.6 0 .4.2.4.2-.1.3-.3.5-.5.9-.5.8-.9 1.8-.9 2.1 0 .6.3.8.5 1 .1.1.3.1.4.2 1.2.5 2.8 1 4.2 1.6 1.9.7 3.6 1.2 3.8 1.2.3 0 1.3-.3 2.5-.8 1.4-.6 3.1-1.2 4.2-1.6.5 1.3-.5 2-.5 2.9 0 .6.3.8.6 1 .6.1 1.3.1 2 .2.4.1.8.1 1.2.1 1.9.3 4 .5 4.9.6.3.1.5.1.6.1 1.7 0 6.1-3.4 7-3.8.6 2.2-1 3.8 1.4 3.8.3 0 2.1 0 4-.2 1.7-.1 3.4-.4 4.7-.9 2.3-.9 4-3.5 5.8-5.1.3.9-.1 3.8 1.8 3.8.3 0 1.4-.2 2.8-.6 1.2-.3 2.8-.8 4.1-1.2.3-.1.5-.3.8-.4.4-.1.7-.4 1-.6 2.3-1.5 3.6-4.2 4.9-5.9.3.4.6 2.4 1.7 2.9.1.1.3.1.6.1s2.1-.6 4-1.6c1.6-.8 3.2-1.9 4.2-2.8 1.3-1.4 2.1-3.3 2.8-4.9.4-.8.7-1.6 1.2-2.2.6.9 1.9 2.8 2.5 2.8.3 0 2-1.1 3.9-2.5 1.6-1.2 3.3-2.7 4.2-4 1.3-1.8 1.1-4.3 1.4-6.3.9.8 2.6 2.5 3.2 2.5.2 0 .7-.5 1.5-1.2 1.8-1.8 4.5-5.3 5.1-6.6.3-1.1.1-2.4.3-3.6V359c-1.3-.7-2.7-1.4-4-2.1-.5.2-1 0-1.5-.2" class="st0"/>
	<path d="M136.6 326.5c.7-4 2.3-8 4.5-11.6 3.1-4.9 7.6-8.9 13-10.3 1.4-.4 2.9-.5 4.5-.5 4.7.1 8.3 2 10.5 5.3 1.2 1.7 1.9 3.8 2.4 6.2l1.7-.7.8-.3 7.6-3 4.6-1.8 3.7-1.4c-.9-3.2-2.1-6.1-3.7-8.5-1.3-2-2.8-3.8-4.6-5.3-2.2-1.8-4.7-3.3-7.6-4.4-.3-.1-.5-.1-.8-.3-1.3-.4-2.7-.7-4.1-1-2.2-.4-4.4-.6-6.9-.6-2.7 0-5.5.2-8.1.7-4.6.7-9 2.2-13 4.4-1.7.9-3.3 1.9-4.9 3.1-.4.3-.8.6-1.2.8-2.3 1.8-4.4 3.8-6.4 6.1-2.5 2.9-4.6 6.1-6.4 9.6-1.9 3.9-3.3 8.2-4.2 12.8-.1.2-.1.5-.1.7-1.1 5.9-.9 11.3.1 16.1.8 3.6 2.3 6.9 4.2 9.7 1.4 2 3 3.7 4.9 5.2.5.4 1 .8 1.5 1.1 1.9 1.4 4 2.5 6.4 3.3.4.1.8.3 1.2.4 1.6.5 3.2.9 4.9 1.2 2.2.4 4.5.6 6.9.6 2.1 0 4.2-.1 6.1-.4 5.3-.7 10.3-2.4 15-5.2l1.8-1.2c.8-.5 1.5-1 2.3-1.6.3-.2.5-.4.8-.7 1.8-1.4 3.4-3 5.1-4.8.9-1.1 1.7-2.1 2.5-3.2 1.9-2.6 3.3-5.2 4.6-7.9 2.5-5.3 3.8-10.9 5-17.1h-9.6l-7.6-.1H169.1l-13.7-.1-1.4 7.5-1.2 7.1h1.2l13.4.1c-1.8 7-7 11-13.4 12-1 .1-2.2.2-3.3.2-4.2 0-7.4-1.4-9.8-3.7-3-2.9-4.7-7.3-4.9-12.1-.1-1-.1-2 0-3.1.3-1 .4-2.2.6-3.3M91.3 314c.7.7 1.4 1.6 1.8 2.3 1.6 2.6 2.1 5.3 2.1 7.7 0 2.3-.5 5.1-2.1 7.8-.6 1-1.2 1.9-2.1 2.7 1.2-3.2 1.8-7.1 1.8-10.5.1-3.3-.7-6.6-1.5-10m-17 8.8c-.1.4-.1.8-.1 1.2 0 .3 0 .7.1 1.1.3 5 2.5 16 8.8 19.3 1.2.6 2.5 1 4 1 .6 0 3.7-.7 5-1.8.4-.3.7-.6 1.1-1 4.9-4.9 6.1-13.5 6.1-18.7 0-3.8-1.2-13.9-6.1-18.5-1.6-1.5-3.6-2.5-6.1-2.5-1.5 0-2.8.3-4 .9-6.6 3.2-8.5 13.9-8.8 19M221.2 336.4l-6.3.1 6.3-12.1 3.4-6.3h.1l2.9 18.3h-6.4zm0-36.1l-1.6.1-33.1 57.6 16.1-.1 5.9-10 12.6-.1h8.3l2 10 16.3-.1-11.6-57.5-14.9.1zM279.8 298.9l-15.4 1.1-10.6 57.5 33.9-2.3 2.3-12.7-18.4 1.2zM321.4 294.4l-15.6 2.1-10.6 57.6 34.3-4.8 2.4-12.6-18.8 2.5zM372.1 320l-6.6 1.3 6.6-13 3.3-6.6h.2l3.1 17-6.6 1.3zm0-34.8l-1.9.3-34 62.4 16.8-3.4 6-10.9 13.1-2.7 8.7-1.8 2.1 9.2 16.9-3.5-12.4-52.9-15.3 3.3zM434.8 310.3l12.6-1.5c-1.9 6.8-7.6 10.7-14.3 11.5-10.3 1.2-14.1-7.3-12.5-16.2 1.6-8.7 8.6-18.8 18.9-20 6.2-.7 10.1 2.4 11.3 7.7l15.9-7.8c-3.2-10.1-11.7-14.3-24.1-12.8-19.3 2.3-34.7 16.2-38.2 34.9-3.3 18 7.6 28.8 26.4 26.6 10-1.2 19.4-5.7 26.8-14.3 6.6-7.9 8.5-15.1 10.3-23.5l-30.8 3.8-2.3 11.6zM514.9 291.1l-22 .1L497 269l-15.3.1-10.6 57.6 15.3-.1 4.3-23.7h22l-4.3 23.6 15.2-.1 10.6-57.6-15.3.2zM575.2 287.5l2.3-12.6-32.3-5.3-10.5 57.5 32.3 5.3 2.3-12.6-17.5-2.9 1.8-10 16.6 2.7 2.3-12.6-16.6-2.7 1.7-9.7z" class="st0"/>
	<g>
		<path d="M603.6 307.6c-1.6 0-3.4-.3-5.1-.7l-1.4-.4 2.7-14.3 1.4.3c.8.2 1.6.5 2.5.8 3.9 1.4 7.3 3.9 6.4 9-.9 4.1-3.5 5.3-6.5 5.3m6.3 10.8c8.2.6 13.8-5.2 15.2-13.1 2.1-12.3-5.1-20-16.1-22.8l-5.5-1.4-16.3-4.2-10.6 57.5 14.5 3.8 4.1-22.1h.1l8.1 21.6 1.6 4.1 18 4.7-13.1-28.1zM624.3 351.7c-.9 1.8-2.2 4.6-2.7 5.5-.3-1-1.6-3.8-2.4-5.7l-1.8-.1v7.3h1.2V353c.8 2.1 1.6 4 2.5 5.7l.8.1c.9-1.8 1.8-3.6 2.6-5.6v5.7h1.6v-7.2h-1.8z" class="st0"/>
	</g>
	<path d="M610.1 352.2l2.4.1v6.3h1.5v-6.3l2.3.1v-.9l-6.2-.3z" class="st0"/>
</svg>